<svg width="694" height="729" viewBox="0 0 694 729" fill="none" xmlns="http://www.w3.org/2000/svg">
<path d="M98.1973 63.0735C98.4268 63.0735 98.6563 63.0735 109.103 61.5817C119.55 60.0898 140.207 57.106 151.766 55.5689C163.326 54.0318 165.162 54.0318 176.551 52.3104C187.94 50.589 208.827 47.1461 220.275 45.1431C233.139 42.8922 241.405 40.8308 255.28 38.4C277.956 34.4275 291.913 31.1075 306.109 28.534C323.474 25.386 339.501 25.5155 351.874 25.6268C381.209 25.8906 389.815 29.4521 398.968 30.0329C406.287 30.4973 414.387 32.0047 425.119 33.1558C441.687 34.9328 452.898 37.7984 465.084 40.9039C475.867 43.6519 496.09 48.3703 508.79 51.1975C526.013 55.0317 533.106 55.4228 544.961 56.4557C554.521 57.4885 571.276 59.5542 581.284 60.6184C591.293 61.6825 594.047 61.6825 596.885 61.6825" stroke="black" stroke-width="10" stroke-linecap="square" stroke-linejoin="round"/>
<path d="M597.582 65.8564C597.582 66.7745 597.123 75.9693 596.312 89.8727C596.01 95.0574 595.732 96.4315 596.072 140.406C596.413 184.38 597.331 270.909 596.542 338.323C595.752 405.736 593.228 451.411 592.386 487.449C591.544 523.487 592.463 548.505 593.05 561.967C593.638 575.429 593.868 576.576 594.904 594.267C595.94 611.957 597.776 646.156 598.378 670.085C598.98 694.015 598.291 706.638 597.582 719.645" stroke="black" stroke-width="10" stroke-linecap="square" stroke-linejoin="round"/>
<path d="M5 716.861C6.37713 716.861 7.75426 716.861 21.4316 717.32C35.109 717.779 61.0449 718.698 79.2258 719.859C97.4067 721.021 107.047 722.398 116.947 723.107C126.848 723.817 136.717 723.817 150.753 723.013C164.789 722.21 182.691 720.603 198.57 718.743C214.449 716.882 227.761 714.817 282.704 714.671C337.646 714.524 433.816 716.361 488.063 716.618C542.31 716.875 551.72 715.498 566.322 714.789C580.925 714.079 600.434 714.079 613.583 713.735C626.732 713.391 632.929 712.702 644.154 712.003C655.38 711.304 671.447 710.616 688 709.906" stroke="black" stroke-width="10" stroke-linecap="square" stroke-linejoin="round"/>
<path d="M100.98 60.291C100.98 60.7501 100.98 61.2091 101.554 74.184C102.128 87.1589 103.275 112.636 103.407 129.892C103.603 155.422 101.676 166.219 101.331 177.844C101.055 187.177 100.298 203.471 100.173 223.801C100.048 244.131 100.507 268.001 100.973 281.101C101.439 294.201 101.898 295.808 102.479 302.718C103.06 309.628 103.748 321.792 103.07 336.092C102.392 350.392 100.326 366.459 99.2621 379.785C98.198 393.111 98.198 403.21 98.657 412.314C100.034 429.222 101.439 439.328 102.135 449.688C102.371 457.982 102.371 472.442 102.371 487.34" stroke="black" stroke-width="10" stroke-linecap="square" stroke-linejoin="round"/>
<path d="M274.163 702.951C275.999 690.488 281.563 675.172 284.46 669.716C285.079 668.55 287.823 673.03 291.523 675.231C303.268 682.219 324.442 675.367 329.193 671.114C332.311 668.322 331.418 660.205 333.376 656.08C336.545 649.405 343.931 649.403 346.135 647.098C347.327 645.852 346.274 642.956 345.12 640.737C343.965 638.518 342.129 636.682 340.495 635.736C338.86 634.791 337.483 634.791 336.315 636.627C333.152 641.596 333.282 647.296 332.249 649.268C326.747 659.771 312.417 628.774 313.335 626.921C318.793 615.901 351.254 638.95 362.932 638.856C369.282 638.805 364.358 626.013 363.426 622.636C362.638 619.781 366.194 629.449 368.733 630.955C370.215 631.834 372.649 631.772 375.667 630.857C378.686 629.943 382.358 627.877 384.02 624.977C387.343 619.179 381.078 609.112 372.186 598.356C362.266 586.356 351.157 582.174 348.827 580.206C346.843 578.53 358.043 578.683 365.457 578.686C371.927 578.689 375.222 570.358 378.825 566.64C380.518 564.893 383.582 567.777 384.973 568.483C393.556 572.839 371.807 546.035 367.846 539.32C364.87 534.275 378.463 531.179 382.866 525.869C387.903 519.793 385.446 508.491 383.495 501.64C381.88 495.968 371.098 505.876 365.895 506.582C353.171 508.308 350.677 491.068 350.208 487.598C349.987 485.963 351.574 484.586 351.821 483.303C353.233 475.968 341.406 467.671 342.317 458.741C342.524 456.708 343.242 455.374 343.478 453.058C343.715 450.742 343.715 447.529 340.846 451.841C337.977 456.153 332.239 468.088 328.48 472.515C324.72 476.942 323.114 473.5 321.942 468.168C319.24 455.877 319.831 440.588 320.182 427.042C320.421 417.827 317.529 412.475 314.413 410.037C312.792 408.769 309.69 410.124 307.238 413.577C295.489 430.126 290.89 437.945 286.592 441.408C278.641 447.816 293.638 456.48 292.72 459.732C292.401 460.859 289.965 459.311 288.56 459.408C287.155 459.506 286.237 460.883 285.994 462.74C285.453 466.862 291.043 473.159 297.077 479.644C299.173 481.898 297.602 483.376 296.208 485C294.813 486.624 293.206 488.69 290.772 489.41C277.255 493.407 263.995 480.629 260.733 482.218C236.738 493.908 287.6 520.718 287.844 521.991C290.185 534.231 257.046 517.018 250.675 517.015C248.196 517.013 247.288 517.929 246.356 519.776C241.191 530.01 245.626 543.615 248.182 552.66C248.968 555.441 247.525 554.82 244.868 551.596C237.718 542.92 232.216 533.968 228.405 530.713C224.5 527.378 217.854 537.153 211.845 542.022C206.31 546.506 194.018 543.907 182.205 543.337C177.445 543.107 175.441 540.701 174.721 538.378C174.001 536.055 174.69 533.3 175.618 531.537C177.115 528.695 185.074 526.31 194.923 522.721C207.824 518.02 209.243 494.316 208.791 492.105C208.065 488.554 200.236 496.375 195.601 496.5C187.623 496.716 199.729 466.85 197.437 448.44C197.078 445.558 196.501 444.246 195.58 444.11C180.841 441.941 171.004 472.032 169.498 471.698C165.725 470.862 170.739 450.853 172.381 431.358C172.756 426.902 156.008 424.152 143.259 413.897C139.763 411.085 138.314 424.758 139.914 437.086C141.514 449.414 145.186 462.955 148.914 474.522C152.642 486.088 156.314 495.269 157.058 499.425C157.803 503.581 155.507 502.433 152.145 498.055C135.289 476.11 128.354 468.102 124.539 467.292C122.574 466.874 120.495 466.711 118.628 468.314C113.979 472.305 111.891 484.252 108.769 494.922C107.742 498.428 105.875 497.328 103.903 494.789C98.969 488.436 95.658 483.174 93.9192 483.508C82.8876 485.626 106.501 507.928 114.983 512.831C116.022 513.432 94.9068 514.695 65.3612 515.617C54.3902 515.959 51.6525 517.456 50.1189 518.966C47.4235 521.618 48.1192 525.81 49.0373 529.391C50.299 534.314 57.5853 539.011 64.071 543.531C70.0508 547.7 79.1533 544.596 84.8461 549.565C86.4763 550.988 87.277 553.373 87.5239 555.011C87.7708 556.649 87.0823 557.796 85.6947 558.502C82.5059 560.125 75.9818 558.527 70.1811 558.28C68.2861 558.199 69.43 562.164 72.3129 564.964C79.0306 571.487 93.9331 575.643 107.955 580.161C113.064 581.807 113.943 582.613 109.94 583.771C105.938 584.929 96.9864 586.535 86.4076 587.248C63.9394 588.762 49.5311 588.184 45.2537 590.489C39.8656 593.394 37.2344 599.528 35.4956 603.579C34.3268 606.302 54.6432 609.96 66.4218 616.453C69.4972 618.148 73.3736 618.098 76.4964 618.901C83.4924 620.701 84.7314 631.494 87.1831 638.365C92.0044 651.879 49.7607 626.91 47.5524 626.792C43.6897 626.585 76.413 630.144 90.4173 633.5C93.0053 634.12 93.5506 640.09 94.8268 653.337C94.9555 680.124 94.9486 698.764 95.2963 701.769C95.4146 703.397 95.4146 705.233 95.4146 707.124" stroke="black" stroke-width="10" stroke-linecap="square" stroke-linejoin="round"/>
<path d="M167.265 602.28C166.94 603.584 160.759 614.652 154.241 627.506C148.861 638.116 142.669 651.639 139.313 656.555C133.486 663.282 128.9 669.187 127.32 671.909C127.719 672.002 129.018 671.352 130.357 670.683" stroke="black" stroke-width="10" stroke-linecap="square" stroke-linejoin="round"/>
<path d="M218.443 603.263C214.841 613.252 211.249 625.644 207.059 636.04C201.569 649.294 196.958 665.721 196.301 670.258C196.136 671.164 195.974 672.138 195.314 673.634" stroke="black" stroke-width="10" stroke-linecap="square" stroke-linejoin="round"/>
<path d="M124.945 707.098C128.193 707.098 142.696 706.935 162.783 706.608C171.341 706.281 176.415 706.114 182.48 705.87C184.81 705.626 186.5 705.342 189 705.342" stroke="black" stroke-width="10" stroke-linecap="square" stroke-linejoin="round"/>
<path d="M136.264 692.335C136.751 692.497 137.238 692.659 144.147 692.581C151.056 692.502 164.373 692.177 173.588 691.929C182.802 691.68 187.512 691.518 193.84 690.366" stroke="black" stroke-width="10" stroke-linecap="square" stroke-linejoin="round"/>
<path d="M147.582 677.572C149.531 677.247 161.902 676.917 179.613 676.509C186.931 675.938 188.747 675.441 191.601 675.195C193.643 675.111 196.891 675.111 200.237 675.111" stroke="black" stroke-width="10" stroke-linecap="square" stroke-linejoin="round"/>
<path d="M154.963 660.839C155.288 660.839 164.712 660.839 180.685 660.596C191.3 659.865 197.102 659.363 200.296 659.201C201.703 659.038 202.678 658.714 203.682 658.379" stroke="black" stroke-width="10" stroke-linecap="square" stroke-linejoin="round"/>
<path d="M164.805 647.06C166.753 647.06 168.702 647.06 176.77 647.06C184.838 647.06 198.967 647.06 214.508 646.076" stroke="black" stroke-width="10" stroke-linecap="square" stroke-linejoin="round"/>
<path d="M181.045 635.742C181.045 634.768 181.045 621.437 181.126 601.511C181.159 593.437 181.537 588.539 182.105 582.715C182.301 580.716 183.811 580.951 184.802 581.197C188.808 582.191 193.653 583.087 199.88 582.678C202.011 582.539 204.774 582.595 206.115 585.437C206.639 602.742 205.65 612.574 204.833 621.422C204.666 625.664 204.666 632.809 205.158 641.648" stroke="black" stroke-width="10" stroke-linecap="square" stroke-linejoin="round"/>
<path d="M208.111 581.119C206.811 581.119 205.512 581.119 196.804 580.794C188.097 580.469 172.019 579.82 155.455 579.15" stroke="black" stroke-width="10" stroke-linecap="square" stroke-linejoin="round"/>
<path d="M307.841 562.74C304.501 578.657 301.16 594.575 297.474 608.768C293.788 622.961 289.858 634.948 287.146 644.366C284.433 653.783 283.058 660.268 282.251 665.377C281.444 670.486 281.247 674.023 281.045 677.668" stroke="black" stroke-width="10" stroke-linecap="square" stroke-linejoin="round"/>
<path d="M282.243 581.171C282.098 585.368 281.953 589.565 282.385 594.26C282.817 598.955 283.83 604.02 285.655 608.656C287.479 613.291 290.084 617.344 293.207 621.519" stroke="black" stroke-width="10" stroke-linecap="square" stroke-linejoin="round"/>
<path d="M176.24 125.063C183.35 125.26 192.89 126.052 202.498 125.266C208.337 125.063 213.928 125.456 218.88 126.052C221.276 126.254 223.438 126.254 225.665 126.254" stroke="black" stroke-width="10" stroke-linecap="square" stroke-linejoin="round"/>
<path d="M228.048 128.041C228.638 142.612 229.441 168.51 227.074 173.381C222.622 182.543 210.219 172.511 186.653 171.809C181.81 171.664 180.827 172.297 180.419 167.587C180.011 162.877 180.207 153.051 180.21 147.007C180.213 140.963 180.017 138.998 179.219 135.782" stroke="black" stroke-width="10" stroke-linecap="square" stroke-linejoin="round"/>
<path d="M222.093 223.912C211.607 223.715 199.322 222.137 190.461 221.431C185.382 220.738 182.404 220.142 179.737 219.844C178.051 219.743 175.693 219.743 173.264 219.743" stroke="black" stroke-width="10" stroke-linecap="square" stroke-linejoin="round"/>
<path d="M181.004 221.531C181.004 222.121 181.004 222.71 181.2 231.562C181.397 240.414 181.79 257.51 182.195 275.124" stroke="black" stroke-width="10" stroke-linecap="square" stroke-linejoin="round"/>
<path d="M226.262 228.082C226.262 231.619 225.672 243.66 224.583 259.928C224.07 267.585 223.284 272.118 220.73 276.387C206.426 276.518 200.489 275.327 193.436 273.642C191.932 273.338 190.95 273.338 189.938 273.338" stroke="black" stroke-width="10" stroke-linecap="square" stroke-linejoin="round"/>
<path d="M463.855 121.491C465.827 121.491 476.087 120.705 502.85 118.916C521.409 118.913 525.565 118.514 529.724 118.416C531.722 118.317 533.491 118.121 533.527 119.109" stroke="black" stroke-width="10" stroke-linecap="square" stroke-linejoin="round"/>
<path d="M519.833 123.873C519.833 125.445 519.833 139.225 519.735 159.367C519.695 167.527 519.041 169.517 518.743 172.184C518.642 173.869 518.642 176.228 512.354 177.639C506.065 179.05 493.489 179.443 480.531 179.848" stroke="black" stroke-width="10" stroke-linecap="square" stroke-linejoin="round"/>
<path d="M471.002 129.827C471.002 130.22 471.002 130.613 471.002 132.486C471.002 134.359 471.002 137.699 471.493 145.217C471.984 152.735 472.967 164.329 473.979 176.275" stroke="black" stroke-width="10" stroke-linecap="square" stroke-linejoin="round"/>
<path d="M469.217 222.722C471.182 222.722 483.788 222.918 501.846 223.314C508.31 223.514 509.293 223.71 512.845 223.811C516.397 223.913 522.488 223.913 529.36 223.317" stroke="black" stroke-width="10" stroke-linecap="square" stroke-linejoin="round"/>
<path d="M521.618 222.126C521.618 223.109 521.618 224.091 521.814 233.244C522.011 242.396 522.404 259.689 521.82 268.892C521.237 278.095 519.665 278.685 518.167 279.087C510.945 281.025 501.991 279.494 488.03 279.194C482.94 279.084 480.143 278.696 478.064 278.5C476.956 278.395 475.79 277.91 475.084 276.234C475.944 259.337 479.934 238.424 479.836 234.658C479.738 233.053 479.541 232.07 478.743 228.676" stroke="black" stroke-width="10" stroke-linecap="square" stroke-linejoin="round"/>
<path d="M466.834 324.549C469.597 324.549 475.147 325.335 494.033 327.223C500.699 327.526 508.363 327.526 512.802 327.428C517.241 327.33 518.224 327.133 519.236 326.931" stroke="black" stroke-width="10" stroke-linecap="square" stroke-linejoin="round"/>
<path d="M519.237 327.526C519.237 329.693 520.416 339.173 522.408 366.521C522.875 372.929 522.417 376.677 521.333 378.797C519.535 382.315 508.596 380.535 494.823 378.749C484.459 377.405 477.774 377.356 474.008 376.066C471.42 375.367 471.39 360.23 473.174 336.226C473.975 327.157 474.564 324.406 475.172 320.976" stroke="black" stroke-width="10" stroke-linecap="square" stroke-linejoin="round"/>
<path d="M472.195 394.221C473.964 394.221 475.732 394.221 479.395 394.515C483.057 394.81 488.559 395.4 495.419 396.007" stroke="black" stroke-width="10" stroke-linecap="square" stroke-linejoin="round"/>
<path d="M467.432 430.544C467.825 430.544 469.796 430.937 478.665 431.729C498.146 432.521 513.063 432.336 517.714 431.443C520.203 431.139 522.954 431.139 525.789 431.139" stroke="black" stroke-width="10" stroke-linecap="square" stroke-linejoin="round"/>
<path d="M476.957 438.286C477.35 438.286 478.339 441.627 479.529 451.994C482.903 481.36 480.53 484.918 480.628 487.493C480.674 488.696 480.923 489.676 482.694 490.378C495.108 495.302 511.828 492.665 520.403 492.284C523.619 492.141 523.404 474.747 523.11 452.238C522.815 443.288 522.225 439.358 521.529 436.547C520.832 433.736 520.046 432.164 519.236 429.949" stroke="black" stroke-width="10" stroke-linecap="square" stroke-linejoin="round"/>
<path d="M532 544.415C531.417 544.415 525.58 544.769 512.964 545.306C497.435 545.489 482.316 544.957 471.873 544.064C467.842 543.701 466.384 543.524 464 543.342" stroke="black" stroke-width="10" stroke-linecap="square" stroke-linejoin="round"/>
<path d="M474.578 543.091C475.168 548.599 476.758 566.433 475.972 581.821C475.654 588.044 475.769 597.875 477.243 603.133C478.717 608.391 481.664 608.784 483.772 608.986C493.347 609.906 505.722 607.402 512.061 606.908C514.63 606.708 518.37 606.807 520.49 599.143C522.609 591.479 523.003 576.152 523.008 566.487C523.014 556.822 522.621 553.285 522.321 550.677C522.02 548.069 521.823 546.497 521.621 542.495" stroke="black" stroke-width="10" stroke-linecap="square" stroke-linejoin="round"/>
<path d="M177.434 325.74C177.63 325.74 177.827 325.74 187.262 325.838C196.697 325.937 215.366 326.133 234.6 326.336" stroke="black" stroke-width="10" stroke-linecap="square" stroke-linejoin="round"/>
<path d="M181.6 330.503C181.6 330.896 181.6 332.671 181.011 340.456C179.719 357.521 178.027 373.526 178.912 381.068C179.363 384.918 197.732 383.703 219.467 376.525C226.857 356.573 226.267 340.257 225.374 335.008C225.07 332.51 225.07 330.348 225.07 328.121" stroke="black" stroke-width="10" stroke-linecap="square" stroke-linejoin="round"/>
<path d="M97.4147 134.342C95.8426 135.128 93.4607 137.105 89.4084 140.764C83.5876 145.406 79.3597 149.02 77.3827 150.902C76.1918 151.801 74.6197 152.587 73 153.397" stroke="black" stroke-width="10" stroke-linecap="square" stroke-linejoin="round"/>
<path d="M83.4087 150.342C83.4087 154.191 82.0746 176.244 79.8863 207.891C79.0851 219.478 78.6987 221.942 79.2773 223.492C83.904 225.883 86.9362 225.324 88.9526 225.187C89.9684 225.05 90.969 224.775 92 224.491" stroke="black" stroke-width="10" stroke-linecap="square" stroke-linejoin="round"/>
<path d="M83 244.342C83 246.312 83 248.282 82.9588 261.512C82.9175 274.742 82.835 299.172 82 324.342" stroke="black" stroke-width="10" stroke-linecap="square" stroke-linejoin="round"/>
<path d="M84 316.342C85.584 316.474 87.168 316.606 89.568 316.74C91.968 316.874 95.136 317.006 100 317.342" stroke="black" stroke-width="10" stroke-linecap="square" stroke-linejoin="round"/>
<path d="M79.7725 349.796C79.7725 352.154 80.1655 368.107 80.4662 392.304C79.177 412.095 79.3735 418.86 79.6713 421.137C79.7725 422.236 79.7725 423.219 79.7725 424.231" stroke="black" stroke-width="10" stroke-linecap="square" stroke-linejoin="round"/>
<path d="M80.3691 419.23C80.5656 419.23 80.7622 419.23 84.597 419.427C88.4319 419.623 95.8992 420.016 103.593 420.421" stroke="black" stroke-width="10" stroke-linecap="square" stroke-linejoin="round"/>
<path d="M79 444.342C79 444.538 79 444.735 79.4913 453.581C79.9825 462.427 80.9651 479.916 81.3819 499.126" stroke="black" stroke-width="10" stroke-linecap="square" stroke-linejoin="round"/>
<path d="M612.729 337.648C612.729 338.434 612.729 353.381 613.023 376.593C613.218 391.934 615.706 397.375 616.397 402.338C617.087 404.521 617.492 406.712 617.591 409.088C617.689 410.285 617.885 411.464 618.088 415.061" stroke="black" stroke-width="10" stroke-linecap="square" stroke-linejoin="round"/>
<path d="M611.537 417.444C610.554 417.641 609.572 417.837 607.002 418.233C604.433 418.629 600.306 419.219 595.459 420.422" stroke="black" stroke-width="10" stroke-linecap="square" stroke-linejoin="round"/>
<path d="M613.918 438.881C613.918 439.667 614.114 453.631 614.805 476.336C615.401 495.935 617.288 502.168 617.687 507.739C617.884 508.939 618.277 509.922 618.479 514.26C618.682 518.598 618.682 526.261 618.682 534.158" stroke="black" stroke-width="10" stroke-linecap="square" stroke-linejoin="round"/>
<path d="M598 536.607L626.822 536.342" stroke="black" stroke-width="10" stroke-linecap="square" stroke-linejoin="round"/>
<path d="M616.748 80.3184C617.431 80.3184 618.114 80.3184 620.003 80.3184C621.892 80.3184 624.966 80.3184 627.062 80.4037C629.158 80.4891 630.182 80.6599 632.791 81.3534" stroke="black" stroke-width="10" stroke-linecap="square" stroke-linejoin="round"/>
<path d="M624 85.3418C624 85.7606 624 90.3743 622.908 97.8754C619.632 102.654 616.654 105.218 612.882 108.372C609.838 110.688 604.5 114.458 599 118.342" stroke="black" stroke-width="10" stroke-linecap="square" stroke-linejoin="round"/>
<path d="M65.6094 79.8005C65.7801 79.8005 65.9509 79.8005 68.5151 79.3735C71.0794 78.9466 76.0319 78.0927 79.0101 77.6528C81.9883 77.213 82.8422 77.213 84.2395 77.7304" stroke="black" stroke-width="10" stroke-linecap="square" stroke-linejoin="round"/>
<path d="M73.3711 80.8359C73.5419 82.8904 74.2302 93.1836 76.7193 99.7947C79.7642 107.882 86.8158 110.137 92.1487 115.058C93.8797 116.357 95.7583 117.724 97.153 118.598C98.5476 119.473 99.4015 119.814 100.281 120.166" stroke="black" stroke-width="10" stroke-linecap="square" stroke-linejoin="round"/>
<path d="M419.531 645.808C420.942 645.808 422.352 645.808 431.644 645.909C440.935 646.009 458.063 646.211 467.693 646.415C486.245 646.81 499.105 646.828 513.333 646.522C526.148 646.247 550.333 646.418 564.402 646.217C581.696 645.612 586.227 644.996 588.563 644.59C589.689 644.385 590.697 644.184 593.567 643.365" stroke="black" stroke-width="10" stroke-linecap="square" stroke-linejoin="round"/>
<path d="M338.749 7.2207C337.923 7.634 331.504 8.88015 316.741 10.9623C296.697 13.7894 281.796 14.9356 275.653 16.3947C264.341 19.0814 247.235 22.8509 235.456 26.5173C226.319 29.3614 218.367 32.0436 208.125 34.7645C190.345 39.488 178.264 39.7836 170.127 40.82C157.51 42.4268 148.839 46.2398 133.591 49.7748C122.375 52.3748 103.67 54.5496 93.366 56.2435C83.0617 57.9374 81.6152 58.5574 79.3201 58.98C77.0251 59.4027 73.9253 59.6094 70.1055 60.4485" stroke="black" stroke-width="10" stroke-linecap="square" stroke-linejoin="round"/>
<path d="M344.385 5.3418C347.29 5.54844 363.666 8.24114 385.561 12.3052C394.464 13.9578 398.777 15.3361 403.389 16.2848C408.001 17.2335 412.754 17.8535 432.768 20.7559C452.782 23.6584 487.912 28.8247 508.903 32.0027C529.893 35.1807 535.679 36.2139 548.373 38.6061C561.066 40.9982 580.491 44.7179 593.494 47.254C606.497 49.7902 612.49 51.0301 616.507 51.8754C620.524 52.7208 622.384 53.1341 626.179 54.8124" stroke="black" stroke-width="10" stroke-linecap="square" stroke-linejoin="round"/>
<path d="M535.713 662.058H594.869" stroke="black" stroke-width="10" stroke-linecap="square" stroke-linejoin="round"/>
<path d="M203.681 133.624C203.46 136.492 203.239 139.359 203.016 146.461C202.792 153.564 202.571 164.813 202.344 176.404" stroke="black" stroke-width="10" stroke-linecap="square" stroke-linejoin="round"/>
<path d="M499.8 333.488C499.8 334.591 499.8 335.694 499.579 342.439C499.359 349.183 498.917 361.536 498.463 374.263" stroke="black" stroke-width="10" stroke-linecap="square" stroke-linejoin="round"/>
<path d="M337.053 74.2441H350.455" stroke="black" stroke-width="10" stroke-linecap="square" stroke-linejoin="round"/>
<path d="M475.264 75.0811C475.54 75.0811 475.817 75.0811 476.788 75.0811C477.76 75.0811 479.418 75.0811 480.964 75.2193C482.509 75.3575 483.892 75.6339 485.316 76.7563" stroke="black" stroke-width="10" stroke-linecap="square" stroke-linejoin="round"/>
<path d="M196.324 73.4053C197.706 73.6817 199.088 73.9581 201.459 74.1005C203.83 74.2429 207.147 74.2429 212.24 75.0806" stroke="black" stroke-width="10" stroke-linecap="square" stroke-linejoin="round"/>
<path d="M599.016 174.469C599.363 174.674 599.71 174.879 601.539 176.217C603.368 177.555 606.668 180.019 611.234 184.471C615.8 188.923 621.531 195.288 629.016 202.469" stroke="black" stroke-width="10" stroke-linecap="square" stroke-linejoin="round"/>
<path d="M97.5533 230.342C95.4455 231.396 93.3377 232.45 89.8805 234.31C86.4234 236.17 81.6808 238.805 78.7765 240.623C75.8723 242.442 74.9501 243.364 74 244.314" stroke="black" stroke-width="10" stroke-linecap="square" stroke-linejoin="round"/>
<path d="M75.2773 350.011C75.7662 349.766 76.255 349.522 79.9898 347.135C83.7246 344.748 90.6905 340.227 98.9784 334.457" stroke="black" stroke-width="10" stroke-linecap="square" stroke-linejoin="round"/>
<path d="M597.068 322.466C597.178 322.466 597.288 322.466 597.895 323.071C598.502 323.676 599.601 324.886 604.678 328.478C609.754 332.071 618.773 338.011 629.065 344.463" stroke="black" stroke-width="10" stroke-linecap="square" stroke-linejoin="round"/>
<path d="M618.215 194.064C618.215 194.412 618.215 194.759 618.215 205.788C618.215 216.818 618.215 238.519 618.302 250.306C618.426 267.175 619.615 274.882 619.88 289.054C620.141 293.642 620.32 298.371 618.063 303.369C615.806 305.069 611.292 305.069 604.537 304.542" stroke="black" stroke-width="10" stroke-linecap="square" stroke-linejoin="round"/>
<path d="M598.225 290.864C599.093 290.864 599.961 290.864 601.102 290.777C602.244 290.69 603.633 290.517 605.911 290.427C608.189 290.338 611.314 290.338 614.533 290.338" stroke="black" stroke-width="10" stroke-linecap="square" stroke-linejoin="round"/>
<path d="M603.484 278.237C603.832 278.237 604.179 278.237 604.878 278.324C605.578 278.411 606.62 278.585 608.545 278.674C610.471 278.763 613.249 278.763 618.215 278.237" stroke="black" stroke-width="10" stroke-linecap="square" stroke-linejoin="round"/>
<path d="M601.906 265.085C602.601 265.085 603.295 265.085 604.434 265.085C605.573 265.085 607.136 265.085 608.895 264.912C610.655 264.738 612.565 264.391 616.637 264.033" stroke="black" stroke-width="10" stroke-linecap="square" stroke-linejoin="round"/>
<path d="M84.6523 210.146C84.6523 210.273 84.6523 210.401 86.1227 210.531C87.5931 210.661 90.5339 210.789 92.88 211.11C95.226 211.432 96.8882 211.943 98.6008 212.858" stroke="black" stroke-width="10" stroke-linecap="square" stroke-linejoin="round"/>
<path d="M83.877 192.323C85.9227 192.835 87.6159 193.098 88.9042 193.162C89.5532 193.226 90.1925 193.354 91.289 193.42C92.3855 193.486 93.9198 193.486 95.5006 193.486" stroke="black" stroke-width="10" stroke-linecap="square" stroke-linejoin="round"/>
<path d="M84.2637 302.748C86.0537 302.236 87.9988 301.845 90.2518 301.651C91.482 301.585 92.8885 301.585 94.0605 301.649C95.2326 301.713 96.1276 301.841 97.4372 302.36" stroke="black" stroke-width="10" stroke-linecap="square" stroke-linejoin="round"/>
<path d="M84.2637 406.586H92.0128" stroke="black" stroke-width="10" stroke-linecap="square" stroke-linejoin="round"/>
<path d="M599.404 403.624C600.384 403.624 601.772 403.526 603.745 403.377C606.111 403.327 608.208 403.131 609.69 402.687C610.389 402.439 610.977 402.145 611.583 401.842" stroke="black" stroke-width="10" stroke-linecap="square" stroke-linejoin="round"/>
<path d="M597.283 519.049C597.567 519.333 598.85 519.479 601.069 519.55C603.147 519.763 606.728 519.91 610.887 519.697C612.489 519.483 613.057 519.057 613.642 518.618" stroke="black" stroke-width="10" stroke-linecap="square" stroke-linejoin="round"/>
<path d="M595.562 506.994C598.563 506.994 603.148 506.71 608.816 506.421C610.049 506.279 610.759 505.995 611.836 505.493C612.912 504.992 614.333 504.282 616.227 503.119" stroke="black" stroke-width="10" stroke-linecap="square" stroke-linejoin="round"/>
<path d="M79.6074 440.516C80.1857 440.516 80.7641 440.516 83.2018 440.516C85.6395 440.516 89.919 440.516 92.4128 440.573C94.9066 440.631 95.4849 440.747 96.0808 440.866" stroke="black" stroke-width="10" stroke-linecap="square" stroke-linejoin="round"/>
</svg>
