<svg width="212" height="181" viewBox="0 0 212 181" fill="none" xmlns="http://www.w3.org/2000/svg">
<path d="M62.0157 15.3133C65.4241 14.2892 68.3875 13.6733 70.1898 12.854C71.9059 12.4413 74.5567 10.1838 75.1963 10.0806C76.3622 9.87581 79.445 8.73353 83.7019 7.65558C87.2188 6.57763 90.9908 4.97087 97.165 5.0004C107.908 5.05178 115.52 5.34148 117.268 5.40799L117.362 5.41156C121.458 5.56709 124.414 5.93666 127.354 6.02754C128.998 6.07836 137.563 6.37819 149.846 9.7403C158.262 12.044 162.528 13.4415 164.94 15.3764C169.006 18.638 173.888 24.1462 176.205 28.2641C177.593 30.7295 179.97 32.9342 182.379 34.9889C186.544 38.54 192.09 42.1764 197.107 45.5605L197.152 45.5911C199.948 47.4765 202.33 49.0829 204.224 53.2124C205.447 55.8796 207.178 58.3087 206.983 61.1138C206.819 63.4806 207.134 74.7909 204.998 77.5C202.969 80.0732 198.498 83.5 197.107 94.5C196.681 97.8679 197.998 115 194.694 126.21C193.376 130.682 192.595 133.682 187.139 144.906C185.552 148.17 184.239 150.827 180.523 152.802C175.319 155.568 170.578 158.575 166.979 160.753C163.851 162.646 161.382 164.704 158.851 166.035C156.517 167.262 151.14 168.757 144.913 171.014C141.956 172.085 138.92 172.6 134.868 173.319C127.327 174.657 119.546 175.819 114.453 175.985C111.323 176.086 104.151 175.711 95.5637 174.129C91.1249 173.311 87.631 173.274 83.9349 171.973C78.6812 170.124 75.7297 169.486 72.303 166.837C69.1116 164.37 61.0222 159.501 53.4764 153.999C49.1238 150.825 46.7694 148.52 40.8237 145.585C36.604 143.502 31.5402 141.932 27.3632 140.637L26.9573 140.511C24.1279 139.633 19.0648 138.562 16.4291 136.45C13.6141 134.194 12.1088 132.772 10.8532 130.857C9.46721 128.743 7.32826 126.009 6.17525 121.611C5.4352 118.789 4.64015 116.508 5.17044 112.062C5.54366 108.933 5.85874 106.627 7.56765 103.597C8.842 101.338 9.96856 99.3178 11.1818 96.6152C12.5678 93.5277 14.0974 90.393 15.6476 87.0169C16.7082 84.707 17.9528 81.4695 18.1963 78.1361C18.5137 73.792 18.3811 68.236 18.8869 66.0754C19.4771 63.5546 20.3396 60.2798 21.6015 56.4216C22.5585 53.4958 22.5141 50.3036 31.9064 38.2566C34.9607 34.3391 38.4041 30.5436 40.6004 28.6413C44.256 25.4753 48.097 21.8088 51.5385 19.9315C54.3616 18.3916 57.7099 16.607 62.0157 15.3133Z" stroke="black" stroke-width="4" vector-effect="non-scaling-stroke" stroke-linecap="square" stroke-linejoin="round"/>
<path d="M116.419 25.3407C117.962 25.2008 124.149 25.1966 127.923 27.0274C131.473 28.7494 132.379 32.8206 132.733 34.2297C132.907 34.922 132.668 35.6389 132.036 36.2788C128.635 39.7253 123.081 41.0126 106.032 41.5148C101.6 41.6453 94.1659 42.8476 83.3676 44.6805C73.6406 46.3316 68.5475 49.4885 65.9963 52.2389C64.4121 53.9467 64.1528 56.409 64.2206 58.6615C64.3083 61.5748 66.1234 63.8975 67.2507 65.3786C69.3159 68.092 73.7432 68.4236 77.621 68.9194C82.1405 69.4973 85.7578 68.8516 87.5865 68.1502C94.5763 65.4693 96.2128 56.2946 96.9926 52.5504C98.157 46.9595 99.0437 42.1738 99.885 38.1435C101.372 31.0183 106.087 28.4683 109.204 26.4044C109.914 26.1882 110.613 26.1882 111.533 26.1183C112.453 26.0484 113.571 25.9085 114.724 25.7644" stroke="black" stroke-width="4" vector-effect="non-scaling-stroke" stroke-linecap="square" stroke-linejoin="round"/>
<path d="M172.309 130.853C172.158 130.986 172.008 131.119 171.578 131.579C171.148 132.04 170.444 132.823 169.719 133.63" stroke="black" stroke-width="4" vector-effect="non-scaling-stroke" stroke-linecap="square" stroke-linejoin="round"/>
<path d="M151.613 123.528C151.439 123.734 151.265 123.94 150.787 124.366C150.309 124.793 149.533 125.433 147.998 126.541" stroke="black" stroke-width="4" vector-effect="non-scaling-stroke" stroke-linecap="square" stroke-linejoin="round"/>
<path d="M152.824 143.014C152.763 143.08 152.703 143.146 152.389 143.288C152.076 143.43 151.512 143.645 150.942 143.927C150.372 144.208 149.814 144.55 148.501 145.706" stroke="black" stroke-width="4" vector-effect="non-scaling-stroke" stroke-linecap="square" stroke-linejoin="round"/>
</svg>
